<mxfile host="app.diagrams.net" modified="2024-02-13T18:46:47.151Z" agent="Mozilla/5.0 (Windows NT 10.0; Win64; x64) AppleWebKit/537.36 (KHTML, like Gecko) Chrome/121.0.0.0 Safari/537.36" etag="1Rg04fBLF9CsVqbvX97O" version="22.1.17" type="device">
  <diagram name="CARM state diagram" id="pw5OKiEH366dZnfy1Ik5">
    <mxGraphModel dx="2264" dy="1231" grid="1" gridSize="10" guides="1" tooltips="1" connect="1" arrows="1" fold="1" page="1" pageScale="1" pageWidth="850" pageHeight="1100" math="0" shadow="0">
      <root>
        <mxCell id="wuH4Zu86SxaXAd_5PtIq-0" />
        <mxCell id="wuH4Zu86SxaXAd_5PtIq-1" parent="wuH4Zu86SxaXAd_5PtIq-0" />
        <mxCell id="_4XyeSC3_gpGBz2ltpto-16" value="" style="rounded=0;whiteSpace=wrap;html=1;" vertex="1" parent="wuH4Zu86SxaXAd_5PtIq-1">
          <mxGeometry x="20" width="1230" height="800" as="geometry" />
        </mxCell>
        <mxCell id="wuH4Zu86SxaXAd_5PtIq-2" value="" style="shape=ellipse;html=1;fillColor=#000000;fontSize=18;fontColor=#000000;strokeColor=#000000;" parent="wuH4Zu86SxaXAd_5PtIq-1" vertex="1">
          <mxGeometry x="130" y="400" width="40" height="40" as="geometry" />
        </mxCell>
        <mxCell id="wuH4Zu86SxaXAd_5PtIq-3" value="" style="shape=mxgraph.sysml.actFinal;html=1;verticalLabelPosition=bottom;labelBackgroundColor=#ffffff;verticalAlign=top;fontColor=#000000;fillColor=#FFFFFF;strokeColor=#000000;" parent="wuH4Zu86SxaXAd_5PtIq-1" vertex="1">
          <mxGeometry x="150" y="540" width="40" height="40" as="geometry" />
        </mxCell>
        <mxCell id="_izyGURYxtRqP74nNibb-6" style="edgeStyle=orthogonalEdgeStyle;rounded=0;orthogonalLoop=1;jettySize=auto;html=1;entryX=-0.002;entryY=0.387;entryDx=0;entryDy=0;entryPerimeter=0;exitX=1;exitY=0.25;exitDx=0;exitDy=0;exitPerimeter=0;" parent="wuH4Zu86SxaXAd_5PtIq-1" source="iHzWZplmQ0m5VMdAqqLW-0" target="_izyGURYxtRqP74nNibb-8" edge="1">
          <mxGeometry relative="1" as="geometry">
            <mxPoint x="757.6" y="156.18" as="targetPoint" />
            <mxPoint x="-10" y="409.5" as="sourcePoint" />
          </mxGeometry>
        </mxCell>
        <mxCell id="_izyGURYxtRqP74nNibb-7" value="Button press to&lt;br&gt;initiate next state" style="edgeLabel;html=1;align=center;verticalAlign=middle;resizable=0;points=[];" parent="_izyGURYxtRqP74nNibb-6" vertex="1" connectable="0">
          <mxGeometry x="-0.0305" relative="1" as="geometry">
            <mxPoint as="offset" />
          </mxGeometry>
        </mxCell>
        <mxCell id="wuH4Zu86SxaXAd_5PtIq-8" value="LAUNCH MODE" style="shape=mxgraph.sysml.compState;align=left;verticalAlign=top;spacingTop=-3;spacingLeft=18;strokeWidth=1;recursiveResize=0;fontColor=#000000;strokeColor=#000000;fillColor=#FFFFFF;fontStyle=1" parent="wuH4Zu86SxaXAd_5PtIq-1" vertex="1">
          <mxGeometry x="750" y="150" width="460" height="490" as="geometry" />
        </mxCell>
        <mxCell id="wuH4Zu86SxaXAd_5PtIq-9" value="" style="shape=ellipse;html=1;fillColor=#000000;verticalLabelPosition=bottom;labelBackgroundColor=#ffffff;verticalAlign=top;fontColor=#000000;strokeColor=#000000;" parent="wuH4Zu86SxaXAd_5PtIq-8" vertex="1">
          <mxGeometry x="20" y="50" width="20" height="20" as="geometry" />
        </mxCell>
        <mxCell id="wuH4Zu86SxaXAd_5PtIq-12" value="" style="strokeColor=#000000;fillColor=inherit;gradientColor=inherit;edgeStyle=none;html=1;endArrow=open;endSize=12;fontColor=#000000;entryX=0;entryY=0.5;entryDx=0;entryDy=0;" parent="wuH4Zu86SxaXAd_5PtIq-8" source="wuH4Zu86SxaXAd_5PtIq-9" target="_izyGURYxtRqP74nNibb-18" edge="1">
          <mxGeometry relative="1" as="geometry">
            <mxPoint x="90" y="50" as="targetPoint" />
          </mxGeometry>
        </mxCell>
        <mxCell id="_izyGURYxtRqP74nNibb-27" value="" style="edgeStyle=orthogonalEdgeStyle;rounded=0;orthogonalLoop=1;jettySize=auto;html=1;" parent="wuH4Zu86SxaXAd_5PtIq-8" source="_izyGURYxtRqP74nNibb-18" target="_izyGURYxtRqP74nNibb-26" edge="1">
          <mxGeometry relative="1" as="geometry">
            <Array as="points">
              <mxPoint x="150" y="130" />
              <mxPoint x="50" y="130" />
            </Array>
          </mxGeometry>
        </mxCell>
        <mxCell id="_4XyeSC3_gpGBz2ltpto-0" value="Negative&amp;nbsp;&lt;br&gt;acceleration detected" style="edgeLabel;html=1;align=center;verticalAlign=middle;resizable=0;points=[];" vertex="1" connectable="0" parent="_izyGURYxtRqP74nNibb-27">
          <mxGeometry x="-0.5685" y="-4" relative="1" as="geometry">
            <mxPoint x="-16" as="offset" />
          </mxGeometry>
        </mxCell>
        <mxCell id="_izyGURYxtRqP74nNibb-18" value="&lt;b&gt;POWERED FLIGHT PHASE&lt;/b&gt;" style="shape=rect;rounded=1;html=1;whiteSpace=wrap;align=center;fontColor=#000000;fillColor=#ffffff;strokeColor=#000000;" parent="wuH4Zu86SxaXAd_5PtIq-8" vertex="1">
          <mxGeometry x="100" y="40" width="100" height="40" as="geometry" />
        </mxCell>
        <mxCell id="_4XyeSC3_gpGBz2ltpto-5" style="edgeStyle=orthogonalEdgeStyle;rounded=0;orthogonalLoop=1;jettySize=auto;html=1;exitX=0.5;exitY=1;exitDx=0;exitDy=0;entryX=0.5;entryY=0;entryDx=0;entryDy=0;" edge="1" parent="wuH4Zu86SxaXAd_5PtIq-8" source="_izyGURYxtRqP74nNibb-26" target="_izyGURYxtRqP74nNibb-28">
          <mxGeometry relative="1" as="geometry">
            <Array as="points">
              <mxPoint x="60" y="230" />
              <mxPoint x="180" y="230" />
            </Array>
          </mxGeometry>
        </mxCell>
        <mxCell id="_4XyeSC3_gpGBz2ltpto-6" value="Detected velocity â‰ˆ 0&lt;br style=&quot;border-color: var(--border-color);&quot;&gt;Acceleration changes from&lt;br style=&quot;border-color: var(--border-color);&quot;&gt;positive to negative" style="edgeLabel;html=1;align=center;verticalAlign=middle;resizable=0;points=[];" vertex="1" connectable="0" parent="_4XyeSC3_gpGBz2ltpto-5">
          <mxGeometry x="0.1593" relative="1" as="geometry">
            <mxPoint x="-1" y="-10" as="offset" />
          </mxGeometry>
        </mxCell>
        <mxCell id="_izyGURYxtRqP74nNibb-26" value="&lt;b&gt;COAST PHASE&lt;/b&gt;" style="shape=rect;rounded=1;html=1;whiteSpace=wrap;align=center;fontColor=#000000;fillColor=#ffffff;strokeColor=#000000;" parent="wuH4Zu86SxaXAd_5PtIq-8" vertex="1">
          <mxGeometry x="10" y="150" width="100" height="40" as="geometry" />
        </mxCell>
        <mxCell id="_4XyeSC3_gpGBz2ltpto-7" style="edgeStyle=orthogonalEdgeStyle;rounded=0;orthogonalLoop=1;jettySize=auto;html=1;" edge="1" parent="wuH4Zu86SxaXAd_5PtIq-8" source="_izyGURYxtRqP74nNibb-28" target="_izyGURYxtRqP74nNibb-30">
          <mxGeometry relative="1" as="geometry" />
        </mxCell>
        <mxCell id="_izyGURYxtRqP74nNibb-28" value="&lt;b&gt;APOGEE PHASE&lt;/b&gt;" style="shape=rect;rounded=1;html=1;whiteSpace=wrap;align=center;fontColor=#000000;fillColor=#ffffff;strokeColor=#000000;" parent="wuH4Zu86SxaXAd_5PtIq-8" vertex="1">
          <mxGeometry x="130" y="270" width="100" height="40" as="geometry" />
        </mxCell>
        <mxCell id="_izyGURYxtRqP74nNibb-33" value="" style="edgeStyle=orthogonalEdgeStyle;rounded=0;orthogonalLoop=1;jettySize=auto;html=1;" parent="wuH4Zu86SxaXAd_5PtIq-8" source="_izyGURYxtRqP74nNibb-30" target="_izyGURYxtRqP74nNibb-32" edge="1">
          <mxGeometry relative="1" as="geometry">
            <Array as="points">
              <mxPoint x="60" y="415" />
              <mxPoint x="140" y="415" />
            </Array>
          </mxGeometry>
        </mxCell>
        <mxCell id="_izyGURYxtRqP74nNibb-30" value="&lt;b&gt;DROGUE DEPLOYMENT&amp;nbsp;&lt;/b&gt;" style="shape=rect;rounded=1;html=1;whiteSpace=wrap;align=center;fontColor=#000000;fillColor=#ffffff;strokeColor=#000000;" parent="wuH4Zu86SxaXAd_5PtIq-8" vertex="1">
          <mxGeometry x="10" y="345" width="100" height="40" as="geometry" />
        </mxCell>
        <mxCell id="_izyGURYxtRqP74nNibb-32" value="&lt;b&gt;MAIN DEPLOYMENT&amp;nbsp;&lt;/b&gt;" style="shape=rect;rounded=1;html=1;whiteSpace=wrap;align=center;fontColor=#000000;fillColor=#ffffff;strokeColor=#000000;" parent="wuH4Zu86SxaXAd_5PtIq-8" vertex="1">
          <mxGeometry x="80" y="445" width="100" height="40" as="geometry" />
        </mxCell>
        <mxCell id="_izyGURYxtRqP74nNibb-16" value="&lt;p style=&quot;margin: 0px ; margin-top: 4px ; text-align: center&quot;&gt;Transmission Data&lt;/p&gt;&lt;hr&gt;&lt;p&gt;&lt;/p&gt;&lt;p style=&quot;margin: 0px ; margin-left: 8px ; text-align: left&quot;&gt;&lt;span style=&quot;background-color: initial;&quot;&gt;- Timestamp&lt;/span&gt;&lt;/p&gt;&lt;p style=&quot;margin: 0px ; margin-left: 8px ; text-align: left&quot;&gt;&lt;span style=&quot;background-color: initial;&quot;&gt;-&amp;nbsp;&lt;/span&gt;&lt;span style=&quot;background-color: initial;&quot;&gt;Number of satellites detected&amp;nbsp;&lt;/span&gt;&lt;/p&gt;&lt;p style=&quot;border-color: var(--border-color); margin: 0px 0px 0px 8px; text-align: left;&quot;&gt;- Current state&lt;/p&gt;&lt;p style=&quot;border-color: var(--border-color); margin: 0px 0px 0px 8px; text-align: left;&quot;&gt;- Velocity&lt;/p&gt;&lt;p style=&quot;border-color: var(--border-color); margin: 0px 0px 0px 8px; text-align: left;&quot;&gt;- Acceleration&lt;/p&gt;&lt;p style=&quot;border-color: var(--border-color); margin: 0px 0px 0px 8px; text-align: left;&quot;&gt;- Gyro measurements&lt;/p&gt;&lt;p style=&quot;border-color: var(--border-color); margin: 0px 0px 0px 8px; text-align: left;&quot;&gt;- Magnetic force&lt;/p&gt;&lt;p style=&quot;border-color: var(--border-color); margin: 0px 0px 0px 8px; text-align: left;&quot;&gt;- GPS coordinates&lt;/p&gt;&lt;p style=&quot;margin: 0px ; margin-left: 8px ; text-align: left&quot;&gt;- Internal temperature&lt;/p&gt;&lt;p style=&quot;margin: 0px ; margin-left: 8px ; text-align: left&quot;&gt;- External temperature&lt;/p&gt;&lt;p style=&quot;margin: 0px ; margin-left: 8px ; text-align: left&quot;&gt;- Sensor failure flag&lt;/p&gt;&lt;p style=&quot;margin: 0px ; margin-left: 8px ; text-align: left&quot;&gt;- Altitude&lt;/p&gt;" style="shape=mxgraph.sysml.simpleState;html=1;overflow=fill;whiteSpace=wrap;align=center;fontColor=#000000;fillColor=#FFFFFF;strokeColor=#000000;" parent="wuH4Zu86SxaXAd_5PtIq-8" vertex="1">
          <mxGeometry x="250" y="150" width="190" height="215" as="geometry" />
        </mxCell>
        <mxCell id="wuH4Zu86SxaXAd_5PtIq-23" value="&lt;font style=&quot;font-size: 24px;&quot;&gt;Transmission Protocol State Diagram&amp;nbsp;&lt;/font&gt;" style="text;html=1;resizable=0;points=[];autosize=1;align=left;verticalAlign=top;spacingTop=-4;fontColor=#000000;fontSize=24;fontStyle=5" parent="wuH4Zu86SxaXAd_5PtIq-1" vertex="1">
          <mxGeometry x="425" y="40" width="460" height="40" as="geometry" />
        </mxCell>
        <mxCell id="_izyGURYxtRqP74nNibb-0" style="edgeStyle=orthogonalEdgeStyle;rounded=0;orthogonalLoop=1;jettySize=auto;html=1;exitX=0.5;exitY=1;exitDx=0;exitDy=0;exitPerimeter=0;" parent="wuH4Zu86SxaXAd_5PtIq-1" source="wuH4Zu86SxaXAd_5PtIq-3" target="wuH4Zu86SxaXAd_5PtIq-3" edge="1">
          <mxGeometry relative="1" as="geometry" />
        </mxCell>
        <mxCell id="_izyGURYxtRqP74nNibb-3" value="" style="edgeStyle=elbowEdgeStyle;html=1;elbow=horizontal;align=right;verticalAlign=bottom;rounded=0;labelBackgroundColor=none;endArrow=open;endSize=12;fontColor=#000000;strokeColor=#000000;entryX=0.5;entryY=1;entryDx=0;entryDy=0;entryPerimeter=0;exitX=0.5;exitY=0;exitDx=0;exitDy=0;" parent="wuH4Zu86SxaXAd_5PtIq-1" source="wuH4Zu86SxaXAd_5PtIq-2" target="iHzWZplmQ0m5VMdAqqLW-0" edge="1">
          <mxGeometry relative="1" as="geometry">
            <mxPoint x="210" y="420" as="sourcePoint" />
            <mxPoint x="200.00000000000023" y="160" as="targetPoint" />
            <Array as="points" />
          </mxGeometry>
        </mxCell>
        <mxCell id="_izyGURYxtRqP74nNibb-4" value="Receiving&lt;br&gt;&amp;nbsp;power" style="text;html=1;resizable=0;points=[];align=center;verticalAlign=middle;labelBackgroundColor=#ffffff;fontColor=#000000;" parent="_izyGURYxtRqP74nNibb-3" vertex="1" connectable="0">
          <mxGeometry y="-9" relative="1" as="geometry">
            <mxPoint x="-9" as="offset" />
          </mxGeometry>
        </mxCell>
        <mxCell id="_izyGURYxtRqP74nNibb-10" style="edgeStyle=orthogonalEdgeStyle;rounded=0;orthogonalLoop=1;jettySize=auto;html=1;exitX=0.75;exitY=1;exitDx=0;exitDy=0;exitPerimeter=0;entryX=0.5;entryY=0;entryDx=0;entryDy=0;" parent="wuH4Zu86SxaXAd_5PtIq-1" source="_izyGURYxtRqP74nNibb-8" target="_izyGURYxtRqP74nNibb-9" edge="1">
          <mxGeometry relative="1" as="geometry">
            <mxPoint x="570" y="360" as="targetPoint" />
            <Array as="points">
              <mxPoint x="572" y="250" />
            </Array>
          </mxGeometry>
        </mxCell>
        <mxCell id="_izyGURYxtRqP74nNibb-8" value="&lt;p style=&quot;margin: 0px ; margin-top: 4px ; text-align: center&quot;&gt;&lt;b&gt;LAUNCH READY&lt;/b&gt;&lt;/p&gt;&lt;hr&gt;&lt;p&gt;&lt;/p&gt;&lt;p style=&quot;margin: 0px ; margin-left: 8px ; text-align: left&quot;&gt;&lt;u&gt;Transmission data:&lt;/u&gt;&lt;/p&gt;&lt;p style=&quot;border-color: var(--border-color); margin: 0px 0px 0px 8px; text-align: left;&quot;&gt;- Number of satellites detected&amp;nbsp;&lt;/p&gt;&lt;p style=&quot;border-color: var(--border-color); margin: 0px 0px 0px 8px; text-align: left;&quot;&gt;- Current state&lt;/p&gt;&lt;p style=&quot;margin: 0px ; margin-left: 8px ; text-align: left&quot;&gt;- Internal temperature&lt;/p&gt;&lt;p style=&quot;margin: 0px ; margin-left: 8px ; text-align: left&quot;&gt;- External temperature&lt;/p&gt;&lt;p style=&quot;margin: 0px ; margin-left: 8px ; text-align: left&quot;&gt;- Velocity&lt;/p&gt;&lt;p style=&quot;border-color: var(--border-color); margin: 0px 0px 0px 8px; text-align: left;&quot;&gt;- Acceleration&lt;/p&gt;&lt;p style=&quot;border-color: var(--border-color); margin: 0px 0px 0px 8px; text-align: left;&quot;&gt;- Gyro measurements&lt;/p&gt;&lt;p style=&quot;border-color: var(--border-color); margin: 0px 0px 0px 8px; text-align: left;&quot;&gt;- Magnetic force&lt;/p&gt;&lt;p style=&quot;border-color: var(--border-color); margin: 0px 0px 0px 8px; text-align: left;&quot;&gt;- GPS coordinates&lt;/p&gt;&lt;p style=&quot;border-color: var(--border-color); margin: 0px 0px 0px 8px; text-align: left;&quot;&gt;- Failure flags&lt;/p&gt;&lt;p style=&quot;border-color: var(--border-color); margin: 0px 0px 0px 8px; text-align: left;&quot;&gt;- Altitude&lt;/p&gt;" style="shape=mxgraph.sysml.simpleState;html=1;overflow=fill;whiteSpace=wrap;align=center;fontColor=#000000;fillColor=#FFFFFF;strokeColor=#000000;" parent="wuH4Zu86SxaXAd_5PtIq-1" vertex="1">
          <mxGeometry x="450" y="100" width="190" height="220" as="geometry" />
        </mxCell>
        <mxCell id="_izyGURYxtRqP74nNibb-12" style="edgeStyle=orthogonalEdgeStyle;rounded=0;orthogonalLoop=1;jettySize=auto;html=1;entryX=0;entryY=0;entryDx=0;entryDy=105;entryPerimeter=0;exitX=1;exitY=0.5;exitDx=0;exitDy=0;fontSize=10;" parent="wuH4Zu86SxaXAd_5PtIq-1" source="_izyGURYxtRqP74nNibb-9" target="wuH4Zu86SxaXAd_5PtIq-8" edge="1">
          <mxGeometry relative="1" as="geometry">
            <mxPoint x="850" y="180" as="targetPoint" />
            <mxPoint x="750" y="190" as="sourcePoint" />
          </mxGeometry>
        </mxCell>
        <mxCell id="_izyGURYxtRqP74nNibb-14" value="Positive change in velocity&lt;br style=&quot;font-size: 10.5px;&quot;&gt;Positive change in altitude" style="edgeLabel;html=1;align=center;verticalAlign=middle;resizable=0;points=[];fontSize=10.5;" parent="_izyGURYxtRqP74nNibb-12" vertex="1" connectable="0">
          <mxGeometry x="-0.1021" y="1" relative="1" as="geometry">
            <mxPoint x="-5" y="32" as="offset" />
          </mxGeometry>
        </mxCell>
        <mxCell id="_izyGURYxtRqP74nNibb-9" value="" style="shape=rhombus;html=1;labelPosition=right;align=left;verticalAlign=middle;fontColor=#000000;strokeColor=#000000;fillColor=#FFFFFF;" parent="wuH4Zu86SxaXAd_5PtIq-1" vertex="1">
          <mxGeometry x="552" y="370" width="40" height="40" as="geometry" />
        </mxCell>
        <mxCell id="_izyGURYxtRqP74nNibb-11" style="edgeStyle=orthogonalEdgeStyle;rounded=0;orthogonalLoop=1;jettySize=auto;html=1;exitX=0;exitY=0.5;exitDx=0;exitDy=0;entryX=0.209;entryY=1.008;entryDx=0;entryDy=0;entryPerimeter=0;" parent="wuH4Zu86SxaXAd_5PtIq-1" source="_izyGURYxtRqP74nNibb-9" target="_izyGURYxtRqP74nNibb-8" edge="1">
          <mxGeometry relative="1" as="geometry">
            <mxPoint x="530" y="390" as="sourcePoint" />
            <mxPoint x="490" y="340" as="targetPoint" />
            <Array as="points">
              <mxPoint x="490" y="390" />
            </Array>
          </mxGeometry>
        </mxCell>
        <mxCell id="_izyGURYxtRqP74nNibb-13" value="No change in altitude&lt;br style=&quot;font-size: 10.5px;&quot;&gt;No change in velocity" style="edgeLabel;html=1;align=center;verticalAlign=middle;resizable=0;points=[];fontSize=10.5;" parent="_izyGURYxtRqP74nNibb-11" vertex="1" connectable="0">
          <mxGeometry x="0.114" y="2" relative="1" as="geometry">
            <mxPoint x="-14" y="7" as="offset" />
          </mxGeometry>
        </mxCell>
        <mxCell id="_izyGURYxtRqP74nNibb-50" value="" style="edgeStyle=segmentEdgeStyle;endArrow=classic;html=1;curved=0;rounded=0;endSize=8;startSize=8;sourcePerimeterSpacing=0;targetPerimeterSpacing=0;entryX=1;entryY=0.5;entryDx=0;entryDy=0;entryPerimeter=0;exitX=-0.005;exitY=0.796;exitDx=0;exitDy=0;exitPerimeter=0;" parent="wuH4Zu86SxaXAd_5PtIq-1" edge="1" source="wuH4Zu86SxaXAd_5PtIq-8">
          <mxGeometry width="100" relative="1" as="geometry">
            <mxPoint x="740" y="540" as="sourcePoint" />
            <mxPoint x="525" y="670.82" as="targetPoint" />
            <Array as="points">
              <mxPoint x="650" y="540" />
              <mxPoint x="650" y="671" />
            </Array>
          </mxGeometry>
        </mxCell>
        <mxCell id="_4XyeSC3_gpGBz2ltpto-12" value="Velocity&amp;nbsp;â‰ˆ 0&lt;br&gt;No change in altitude" style="edgeLabel;html=1;align=center;verticalAlign=middle;resizable=0;points=[];" vertex="1" connectable="0" parent="_izyGURYxtRqP74nNibb-50">
          <mxGeometry x="-0.0948" relative="1" as="geometry">
            <mxPoint as="offset" />
          </mxGeometry>
        </mxCell>
        <mxCell id="_izyGURYxtRqP74nNibb-52" value="" style="edgeStyle=orthogonalEdgeStyle;rounded=0;orthogonalLoop=1;jettySize=auto;html=1;" parent="wuH4Zu86SxaXAd_5PtIq-1" source="_izyGURYxtRqP74nNibb-51" target="wuH4Zu86SxaXAd_5PtIq-3" edge="1">
          <mxGeometry relative="1" as="geometry" />
        </mxCell>
        <mxCell id="pV1_nWLc1XVgZGlxJOyn-1" value="Button press to &lt;br&gt;end transmission" style="edgeLabel;html=1;align=center;verticalAlign=middle;resizable=0;points=[];" parent="_izyGURYxtRqP74nNibb-52" vertex="1" connectable="0">
          <mxGeometry x="0.252" y="3" relative="1" as="geometry">
            <mxPoint x="16" as="offset" />
          </mxGeometry>
        </mxCell>
        <mxCell id="_izyGURYxtRqP74nNibb-51" value="&lt;p style=&quot;margin: 0px ; margin-top: 4px ; text-align: center&quot;&gt;&lt;b&gt;RECOVERY MODE&lt;/b&gt;&lt;/p&gt;&lt;hr&gt;&lt;p&gt;&lt;/p&gt;&lt;p style=&quot;margin: 0px ; margin-left: 8px ; text-align: left&quot;&gt;&lt;u&gt;Transmission data:&lt;/u&gt;&lt;/p&gt;&lt;p style=&quot;border-color: var(--border-color); margin: 0px 0px 0px 8px; text-align: left;&quot;&gt;- Number of satellites detected&amp;nbsp;&lt;br style=&quot;border-color: var(--border-color);&quot;&gt;&lt;/p&gt;&lt;p style=&quot;border-color: var(--border-color); margin: 0px 0px 0px 8px; text-align: left;&quot;&gt;- Current state&lt;/p&gt;&lt;p style=&quot;border-color: var(--border-color); margin: 0px 0px 0px 8px; text-align: left;&quot;&gt;- GPS coordinates&lt;/p&gt;&lt;p style=&quot;border-color: var(--border-color); margin: 0px 0px 0px 8px; text-align: left;&quot;&gt;- Internal temperature&lt;/p&gt;&lt;p style=&quot;border-color: var(--border-color); margin: 0px 0px 0px 8px; text-align: left;&quot;&gt;- External temperature&lt;/p&gt;&lt;p style=&quot;border-color: var(--border-color); margin: 0px 0px 0px 8px; text-align: left;&quot;&gt;&lt;br&gt;&lt;/p&gt;&lt;p style=&quot;border-color: var(--border-color); margin: 0px 0px 0px 8px; text-align: left;&quot;&gt;&lt;u&gt;Actions:&lt;/u&gt;&lt;/p&gt;&lt;p style=&quot;border-color: var(--border-color); margin: 0px 0px 0px 8px; text-align: left;&quot;&gt;- Play screamer&lt;/p&gt;" style="shape=mxgraph.sysml.simpleState;html=1;overflow=fill;whiteSpace=wrap;align=center;fontColor=#000000;fillColor=#FFFFFF;strokeColor=#000000;" parent="wuH4Zu86SxaXAd_5PtIq-1" vertex="1">
          <mxGeometry x="325" y="570" width="200" height="180" as="geometry" />
        </mxCell>
        <mxCell id="iHzWZplmQ0m5VMdAqqLW-0" value="&lt;p style=&quot;margin: 0px ; margin-top: 4px ; text-align: center&quot;&gt;&lt;b&gt;POWER ON&lt;/b&gt;&lt;/p&gt;&lt;hr&gt;&lt;p&gt;&lt;/p&gt;&lt;p style=&quot;margin: 0px ; margin-left: 8px ; text-align: left&quot;&gt;&lt;u&gt;Transmission data:&lt;/u&gt;&lt;/p&gt;&lt;p style=&quot;border-color: var(--border-color); margin: 0px 0px 0px 8px; text-align: left;&quot;&gt;- Number of satellites detected&amp;nbsp;&lt;/p&gt;&lt;p style=&quot;border-color: var(--border-color); margin: 0px 0px 0px 8px; text-align: left;&quot;&gt;- Current state&lt;/p&gt;&lt;p style=&quot;margin: 0px ; margin-left: 8px ; text-align: left&quot;&gt;- Internal temperature&lt;/p&gt;&lt;p style=&quot;margin: 0px ; margin-left: 8px ; text-align: left&quot;&gt;- External temperature&lt;/p&gt;" style="shape=mxgraph.sysml.simpleState;html=1;overflow=fill;whiteSpace=wrap;align=center;fontColor=#000000;fillColor=#FFFFFF;strokeColor=#000000;" parent="wuH4Zu86SxaXAd_5PtIq-1" vertex="1">
          <mxGeometry x="50" y="160" width="200" height="120" as="geometry" />
        </mxCell>
        <mxCell id="pV1_nWLc1XVgZGlxJOyn-8" style="edgeStyle=orthogonalEdgeStyle;rounded=0;orthogonalLoop=1;jettySize=auto;html=1;exitX=0.005;exitY=0.695;exitDx=0;exitDy=0;exitPerimeter=0;entryX=1;entryY=0.75;entryDx=0;entryDy=0;entryPerimeter=0;" parent="wuH4Zu86SxaXAd_5PtIq-1" source="_izyGURYxtRqP74nNibb-8" target="iHzWZplmQ0m5VMdAqqLW-0" edge="1">
          <mxGeometry relative="1" as="geometry" />
        </mxCell>
        <mxCell id="pV1_nWLc1XVgZGlxJOyn-9" value="Button press to&lt;br style=&quot;border-color: var(--border-color);&quot;&gt;revert to previous state" style="edgeLabel;html=1;align=center;verticalAlign=middle;resizable=0;points=[];" parent="pV1_nWLc1XVgZGlxJOyn-8" vertex="1" connectable="0">
          <mxGeometry x="0.2582" relative="1" as="geometry">
            <mxPoint x="25" as="offset" />
          </mxGeometry>
        </mxCell>
        <mxCell id="DqNY-4gJKUNCP6mAGERK-0" style="edgeStyle=orthogonalEdgeStyle;rounded=0;orthogonalLoop=1;jettySize=auto;html=1;exitX=0.75;exitY=1;exitDx=0;exitDy=0;exitPerimeter=0;entryX=0;entryY=0;entryDx=0;entryDy=320;entryPerimeter=0;" parent="wuH4Zu86SxaXAd_5PtIq-1" source="iHzWZplmQ0m5VMdAqqLW-0" target="wuH4Zu86SxaXAd_5PtIq-8" edge="1">
          <mxGeometry relative="1" as="geometry" />
        </mxCell>
        <mxCell id="DqNY-4gJKUNCP6mAGERK-1" value="Positive change in velocity&lt;br style=&quot;border-color: var(--border-color); font-size: 10.5px;&quot;&gt;Positive change in altitude" style="edgeLabel;html=1;align=center;verticalAlign=middle;resizable=0;points=[];" parent="DqNY-4gJKUNCP6mAGERK-0" vertex="1" connectable="0">
          <mxGeometry x="0.3414" y="-2" relative="1" as="geometry">
            <mxPoint x="-193" as="offset" />
          </mxGeometry>
        </mxCell>
        <mxCell id="_4XyeSC3_gpGBz2ltpto-13" style="edgeStyle=orthogonalEdgeStyle;rounded=0;orthogonalLoop=1;jettySize=auto;html=1;entryX=0.85;entryY=1;entryDx=0;entryDy=0;entryPerimeter=0;" edge="1" parent="wuH4Zu86SxaXAd_5PtIq-1" source="wuH4Zu86SxaXAd_5PtIq-8" target="iHzWZplmQ0m5VMdAqqLW-0">
          <mxGeometry relative="1" as="geometry">
            <Array as="points">
              <mxPoint x="220" y="430" />
            </Array>
          </mxGeometry>
        </mxCell>
        <mxCell id="_4XyeSC3_gpGBz2ltpto-14" value="Button press to reset to &lt;br&gt;POWER ON state" style="edgeLabel;html=1;align=center;verticalAlign=middle;resizable=0;points=[];" vertex="1" connectable="0" parent="_4XyeSC3_gpGBz2ltpto-13">
          <mxGeometry x="-0.3438" y="3" relative="1" as="geometry">
            <mxPoint as="offset" />
          </mxGeometry>
        </mxCell>
      </root>
    </mxGraphModel>
  </diagram>
</mxfile>
